<svg xmlns="http://www.w3.org/2000/svg" width="1363" height="535.715" viewBox="0 0 1363 535.715">
  <g id="그룹_94" data-name="그룹 94" transform="translate(-279 -3250)">
    <text id="김혜경_전영미" data-name="김혜경
전영미" transform="translate(377 3742)" fill="#303030" font-size="17" font-family="NanumSquareB, NanumSquare"><tspan x="0" y="0">김혜경</tspan><tspan x="0" y="37">전영미</tspan></text>
    <text id="장인섭_이인석" data-name="장인섭
이인석" transform="translate(657 3742)" fill="#303030" font-size="17" font-family="NanumSquareB, NanumSquare"><tspan x="0" y="0">장인섭</tspan><tspan x="0" y="37">이인석</tspan></text>
    <text id="이상봉" transform="translate(937 3742)" fill="#303030" font-size="17" font-family="NanumSquareB, NanumSquare"><tspan x="0" y="0">이상봉</tspan></text>
    <text id="외주팀_10-12명" data-name="외주팀
10-12명" transform="translate(1240 3742)" fill="#303030" font-size="17" font-family="NanumSquareB, NanumSquare"><tspan x="-23" y="0">외주팀</tspan><tspan x="-32" y="37">10-12명</tspan></text>
    <text id="최현호_김영재" data-name="최현호
김영재" transform="translate(1498 3742)" fill="#303030" font-size="17" font-family="NanumSquareB, NanumSquare"><tspan x="0" y="0">최현호</tspan><tspan x="0" y="37">김영재</tspan></text>
    <line id="선_34" data-name="선 34" x2="212.56" transform="translate(960.03 3397.528)" fill="none" stroke="#137989" stroke-width="1"/>
    <line id="선_41" data-name="선 41" x2="212.56" transform="translate(747.471 3445.435)" fill="none" stroke="#137989" stroke-width="1"/>
    <line id="선_40" data-name="선 40" x2="212.56" transform="translate(960.03 3492.637)" fill="none" stroke="#137989" stroke-width="1"/>
    <line id="선_32" data-name="선 32" y2="263.958" transform="translate(959.561 3329.66)" fill="none" stroke="#137989" stroke-width="2"/>
    <line id="선_43" data-name="선 43" y2="56.361" transform="translate(399.707 3592.678)" fill="none" stroke="#137989" stroke-width="2"/>
    <line id="선_48" data-name="선 48" y2="56.361" transform="translate(539.67 3729.354)" fill="none" stroke="#e7e7e7" stroke-width="1"/>
    <line id="선_49" data-name="선 49" y2="56.361" transform="translate(819.597 3729.354)" fill="none" stroke="#e7e7e7" stroke-width="1"/>
    <line id="선_50" data-name="선 50" y2="56.361" transform="translate(1099.524 3729.354)" fill="none" stroke="#e7e7e7" stroke-width="1"/>
    <line id="선_51" data-name="선 51" y2="56.361" transform="translate(1380.391 3729.354)" fill="none" stroke="#e7e7e7" stroke-width="1"/>
    <line id="선_44" data-name="선 44" y2="56.361" transform="translate(1520.354 3593.618)" fill="none" stroke="#137989" stroke-width="2"/>
    <line id="선_45" data-name="선 45" y2="56.361" transform="translate(1240.427 3593.618)" fill="none" stroke="#137989" stroke-width="2"/>
    <line id="선_46" data-name="선 46" y2="56.361" transform="translate(959.561 3593.618)" fill="none" stroke="#137989" stroke-width="2"/>
    <line id="선_47" data-name="선 47" y2="56.361" transform="translate(679.634 3593.618)" fill="none" stroke="#137989" stroke-width="2"/>
    <line id="선_42" data-name="선 42" x1="1121.587" transform="translate(399.707 3593.618)" fill="none" stroke="#137989" stroke-width="2"/>
    <g id="그룹_38" data-name="그룹 38" transform="translate(758.069 3250.285)">
      <g id="사각형_43" data-name="사각형 43" transform="translate(403.93 78.715) rotate(180)" fill="#137989" stroke="#137989" stroke-width="1">
        <path d="M39.5,0H404a0,0,0,0,1,0,0V39.5A39.5,39.5,0,0,1,364.5,79H39.5A39.5,39.5,0,0,1,0,39.5v0A39.5,39.5,0,0,1,39.5,0Z" stroke="none"/>
        <path d="M39.5.5H403.389a.111.111,0,0,1,.111.111V39.5a39,39,0,0,1-39,39H39.5a39,39,0,0,1-39-39v0A39,39,0,0,1,39.5.5Z" fill="none"/>
      </g>
      <g id="그룹_37" data-name="그룹 37" transform="translate(80.784 27.241)">
        <text id="이도엽" transform="translate(161.146 18.474)" fill="#fff" font-size="21" font-family="NanumSquareB, NanumSquare"><tspan x="0" y="0">이도엽</tspan></text>
        <text id="대표이사" transform="translate(0.146 18.474)" fill="#efd3af" font-size="21" font-family="NanumSquareB, NanumSquare"><tspan x="0" y="0">대표이사</tspan></text>
        <line id="선_39" data-name="선 39" y2="23.484" transform="translate(121.646 0.47)" fill="none" stroke="#fff" stroke-width="1"/>
      </g>
    </g>
    <path id="사각형_43-2" data-name="사각형 43" d="M28.5,0H242a0,0,0,0,1,0,0V28.5A28.5,28.5,0,0,1,213.5,57H28.5A28.5,28.5,0,0,1,0,28.5v0A28.5,28.5,0,0,1,28.5,0Z" transform="translate(521 3707) rotate(180)" fill="#87b1b7"/>
    <path id="사각형_45" data-name="사각형 45" d="M28.5,0H242a0,0,0,0,1,0,0V28.5A28.5,28.5,0,0,1,213.5,57H28.5A28.5,28.5,0,0,1,0,28.5v0A28.5,28.5,0,0,1,28.5,0Z" transform="translate(801 3707) rotate(180)" fill="#87b1b7"/>
    <path id="사각형_46" data-name="사각형 46" d="M28.5,0H242a0,0,0,0,1,0,0V28.5A28.5,28.5,0,0,1,213.5,57H28.5A28.5,28.5,0,0,1,0,28.5v0A28.5,28.5,0,0,1,28.5,0Z" transform="translate(1081 3707) rotate(180)" fill="#87b1b7"/>
    <path id="사각형_47" data-name="사각형 47" d="M28.5,0H242a0,0,0,0,1,0,0V28.5A28.5,28.5,0,0,1,213.5,57H28.5A28.5,28.5,0,0,1,0,28.5v0A28.5,28.5,0,0,1,28.5,0Z" transform="translate(1361 3707) rotate(180)" fill="#87b1b7"/>
    <path id="사각형_48" data-name="사각형 48" d="M28.5,0H242a0,0,0,0,1,0,0V28.5A28.5,28.5,0,0,1,213.5,57H28.5A28.5,28.5,0,0,1,0,28.5v0A28.5,28.5,0,0,1,28.5,0Z" transform="translate(1642 3707) rotate(180)" fill="#87b1b7"/>
    <text id="디자인기획팀" transform="translate(339 3684)" fill="#fff" font-size="21" font-family="NanumSquareB, NanumSquare"><tspan x="0" y="0">디자인기획팀</tspan></text>
    <text id="홍보전략팀" transform="translate(629 3684)" fill="#fff" font-size="21" font-family="NanumSquareB, NanumSquare"><tspan x="0" y="0">홍보전략팀</tspan></text>
    <text id="영상팀" transform="translate(929 3684)" fill="#fff" font-size="21" font-family="NanumSquareB, NanumSquare"><tspan x="0" y="0">영상팀</tspan></text>
    <text id="행사지원팀" transform="translate(1189 3684)" fill="#fff" font-size="21" font-family="NanumSquareB, NanumSquare"><tspan x="0" y="0">행사지원팀</tspan></text>
    <text id="A_S팀" data-name="A/S팀" transform="translate(1492 3684)" fill="#fff" font-size="21" font-family="NanumSquareB, NanumSquare"><tspan x="0" y="0">A/S팀</tspan></text>
    <g id="사각형_43-3" data-name="사각형 43" transform="translate(1521 3437) rotate(180)" fill="none" stroke="#137989" stroke-width="1">
      <path d="M39.5,0H349a0,0,0,0,1,0,0V39.5A39.5,39.5,0,0,1,309.5,79H39.5A39.5,39.5,0,0,1,0,39.5v0A39.5,39.5,0,0,1,39.5,0Z" stroke="none"/>
      <path d="M39.5.5H348.389a.111.111,0,0,1,.111.111V39.5a39,39,0,0,1-39,39H39.5a39,39,0,0,1-39-39v0A39,39,0,0,1,39.5.5Z" fill="none"/>
    </g>
    <g id="사각형_44" data-name="사각형 44" transform="translate(399 3406)" fill="none" stroke="#137989" stroke-width="1">
      <path d="M39.5,0h270A39.5,39.5,0,0,1,349,39.5V79a0,0,0,0,1,0,0H39.5A39.5,39.5,0,0,1,0,39.5v0A39.5,39.5,0,0,1,39.5,0Z" stroke="none"/>
      <path d="M39.5.5h270a39,39,0,0,1,39,39V78.389a.111.111,0,0,1-.111.111H39.5a39,39,0,0,1-39-39v0A39,39,0,0,1,39.5.5Z" fill="none"/>
    </g>
    <g id="그룹_37-2" data-name="그룹 37" transform="translate(1235.261 3385.551)">
      <text id="이석기" transform="translate(161.739 18.449)" fill="#010000" font-size="21" font-family="NanumSquareR, NanumSquare"><tspan x="0" y="0">이석기</tspan></text>
      <text id="총괄이사" transform="translate(-0.261 18.449)" fill="#137989" font-size="21" font-family="NanumSquareB, NanumSquare"><tspan x="0" y="0">총괄이사</tspan></text>
      <line id="선_39-2" data-name="선 39" y2="23.484" transform="translate(121.646 0.47)" fill="none" stroke="#c5c5c5" stroke-width="1"/>
    </g>
    <g id="그룹_39" data-name="그룹 39" transform="translate(462.174 3433.458)">
      <text id="이면규" transform="translate(161.826 17.542)" fill="#010000" font-size="21" font-family="NanumSquareR, NanumSquare"><tspan x="0" y="0">이면규</tspan></text>
      <text id="홍보이사" transform="translate(-0.174 17.542)" fill="#137989" font-size="21" font-family="NanumSquareB, NanumSquare"><tspan x="0" y="0">홍보이사</tspan></text>
      <line id="선_39-3" data-name="선 39" y2="23.484" transform="translate(121.646 0.47)" fill="none" stroke="#c5c5c5" stroke-width="1"/>
    </g>
    <g id="사각형_43-4" data-name="사각형 43" transform="translate(1521 3532) rotate(180)" fill="none" stroke="#137989" stroke-width="1">
      <path d="M39.5,0H349a0,0,0,0,1,0,0V39.5A39.5,39.5,0,0,1,309.5,79H39.5A39.5,39.5,0,0,1,0,39.5v0A39.5,39.5,0,0,1,39.5,0Z" stroke="none"/>
      <path d="M39.5.5H348.389a.111.111,0,0,1,.111.111V39.5a39,39,0,0,1-39,39H39.5a39,39,0,0,1-39-39v0A39,39,0,0,1,39.5.5Z" fill="none"/>
    </g>
    <g id="그룹_37-3" data-name="그룹 37" transform="translate(1235.261 3480.426)">
      <text id="이승희" transform="translate(161.739 17.574)" fill="#010000" font-size="21" font-family="NanumSquareR, NanumSquare"><tspan x="0" y="0">이승희</tspan></text>
      <text id="영업이사" transform="translate(-0.261 17.574)" fill="#137989" font-size="21" font-family="NanumSquareB, NanumSquare"><tspan x="0" y="0">영업이사</tspan></text>
      <line id="선_39-4" data-name="선 39" y2="23.484" transform="translate(121.646 0.47)" fill="none" stroke="#c5c5c5" stroke-width="1"/>
    </g>
  </g>
</svg>
