<svg xmlns="http://www.w3.org/2000/svg" xmlns:xlink="http://www.w3.org/1999/xlink" width="120.14" height="120.14" viewBox="0 0 120.14 120.14">
  <defs>
    <clipPath id="clip-path">
      <rect id="사각형_19" data-name="사각형 19" width="50.27" height="50.27" fill="none"/>
    </clipPath>
  </defs>
  <g id="그룹_58" data-name="그룹 58" transform="translate(-1509.928 -532.018)">
    <g id="타원_6" data-name="타원 6" transform="translate(1509.928 532.018)" fill="#fff" stroke="#c2c2c2" stroke-width="1">
      <circle cx="60.07" cy="60.07" r="60.07" stroke="none"/>
      <circle cx="60.07" cy="60.07" r="59.57" fill="none"/>
    </g>
    <g id="그룹_35" data-name="그룹 35" transform="translate(-754.002 -6267.049)">
      <text id="현장경영" transform="translate(2295 6895.211)" fill="#303030" font-size="16" font-family="NanumSquareR, NanumSquare"><tspan x="0" y="0">현장경영</tspan></text>
      <g id="그룹_11" data-name="그룹 11" transform="translate(2299 6820.942)">
        <g id="그룹_10" data-name="그룹 10" clip-path="url(#clip-path)">
          <path id="패스_53" data-name="패스 53" d="M50.27,25.136A25.135,25.135,0,1,0,25.135,50.27,25.134,25.134,0,0,0,50.27,25.136" transform="translate(0 0)" fill="#efefef"/>
          <path id="패스_54" data-name="패스 54" d="M52.2,7.821H31.794V39H58.574V14.194Z" transform="translate(-14.708 -3.618)" fill="#fff"/>
          <path id="패스_55" data-name="패스 55" d="M57.765,39.135H30.984a.94.94,0,0,1-.94-.94V7.012a.94.94,0,0,1,.94-.94H51.392a.94.94,0,0,1,.665.275l6.373,6.374a.94.94,0,0,1,.276.665V38.194a.94.94,0,0,1-.94.94m-25.84-1.881h24.9V13.775L51,7.953H31.925Z" transform="translate(-13.898 -2.809)" fill="#727171"/>
          <path id="패스_56" data-name="패스 56" d="M69.769,14.195h6.373L69.769,7.822Z" transform="translate(-32.275 -3.618)" fill="#727171"/>
          <path id="패스_57" data-name="패스 57" d="M75.332,14.326H68.959a.94.94,0,0,1-.94-.94V7.012a.94.94,0,0,1,1.605-.665L76,12.721a.94.94,0,0,1-.666,1.605M69.9,12.445h3.162L69.9,9.282Z" transform="translate(-31.466 -2.809)" fill="#727171"/>
          <path id="패스_58" data-name="패스 58" d="M56.953,28.488H41.834a.94.94,0,1,1,0-1.881H56.953a.94.94,0,1,1,0,1.881" transform="translate(-18.918 -12.308)" fill="#0ef"/>
          <path id="패스_59" data-name="패스 59" d="M56.953,37.7H41.834a.94.94,0,1,1,0-1.881H56.953a.94.94,0,1,1,0,1.881" transform="translate(-18.918 -16.57)" fill="#0ef"/>
          <path id="패스_60" data-name="패스 60" d="M56.953,46.918H41.834a.94.94,0,1,1,0-1.881H56.953a.94.94,0,1,1,0,1.881" transform="translate(-18.918 -20.834)" fill="#0ef"/>
          <path id="패스_61" data-name="패스 61" d="M56.953,56.134H41.834a.94.94,0,1,1,0-1.881H56.953a.94.94,0,1,1,0,1.881" transform="translate(-18.918 -25.098)" fill="#0ef"/>
          <path id="패스_62" data-name="패스 62" d="M42.262,17.76H21.855V48.941h26.78V24.134Z" transform="translate(-10.11 -8.216)" fill="#fff"/>
          <path id="패스_63" data-name="패스 63" d="M47.825,49.072H21.045a.94.94,0,0,1-.94-.94V16.95a.94.94,0,0,1,.94-.94H41.452a.941.941,0,0,1,.665.275L48.49,22.66a.941.941,0,0,1,.276.665V48.132a.94.94,0,0,1-.94.94M21.986,47.191h24.9V23.714l-5.822-5.823H21.986Z" transform="translate(-9.301 -7.406)" fill="#727171"/>
          <path id="패스_64" data-name="패스 64" d="M59.828,24.134H66.2L59.828,17.76Z" transform="translate(-27.677 -8.216)" fill="#727171"/>
          <path id="패스_65" data-name="패스 65" d="M65.391,24.265H59.018a.94.94,0,0,1-.94-.94V16.951a.94.94,0,0,1,1.605-.665l6.374,6.375a.94.94,0,0,1-.665,1.605m-5.433-1.881h3.163l-3.163-3.163Z" transform="translate(-26.867 -7.407)" fill="#727171"/>
          <path id="패스_66" data-name="패스 66" d="M47.015,38.426H31.9a.94.94,0,1,1,0-1.881H47.015a.94.94,0,0,1,0,1.881" transform="translate(-14.321 -16.906)" fill="#0ef"/>
          <path id="패스_67" data-name="패스 67" d="M47.015,47.642H31.9a.94.94,0,1,1,0-1.881H47.015a.94.94,0,0,1,0,1.881" transform="translate(-14.321 -21.169)" fill="#0ef"/>
          <path id="패스_68" data-name="패스 68" d="M47.015,56.857H31.9a.94.94,0,1,1,0-1.881H47.015a.94.94,0,1,1,0,1.881" transform="translate(-14.321 -25.432)" fill="#0ef"/>
          <path id="패스_69" data-name="패스 69" d="M47.015,66.072H31.9a.94.94,0,1,1,0-1.881H47.015a.94.94,0,0,1,0,1.881" transform="translate(-14.321 -29.695)" fill="#0ef"/>
          <path id="패스_70" data-name="패스 70" d="M32.323,27.7H11.917V58.881H38.7V34.072Z" transform="translate(-5.513 -12.814)" fill="#fff"/>
          <path id="패스_71" data-name="패스 71" d="M37.887,59.012H11.107a.94.94,0,0,1-.94-.94V26.889a.94.94,0,0,1,.94-.94H31.514a.94.94,0,0,1,.665.276L38.552,32.6a.938.938,0,0,1,.276.665V58.071a.94.94,0,0,1-.94.94M12.048,57.131h24.9V33.653L31.124,27.83H12.048Z" transform="translate(-4.703 -12.004)" fill="#727171"/>
          <path id="패스_72" data-name="패스 72" d="M49.89,34.073h6.373L49.89,27.7Z" transform="translate(-23.079 -12.814)" fill="#727171"/>
          <path id="패스_73" data-name="패스 73" d="M55.453,34.2H49.08a.94.94,0,0,1-.94-.94V26.89a.94.94,0,0,1,1.605-.665L56.119,32.6a.94.94,0,0,1-.665,1.605m-5.433-1.881h3.163L50.021,29.16Z" transform="translate(-22.27 -12.005)" fill="#727171"/>
          <path id="패스_74" data-name="패스 74" d="M37.075,48.365H21.958a.94.94,0,0,1,0-1.881H37.075a.94.94,0,1,1,0,1.881" transform="translate(-9.723 -21.504)" fill="#467886"/>
          <path id="패스_75" data-name="패스 75" d="M37.075,57.58H21.958a.94.94,0,0,1,0-1.881H37.075a.94.94,0,1,1,0,1.881" transform="translate(-9.723 -25.766)" fill="#467886"/>
          <path id="패스_76" data-name="패스 76" d="M37.075,66.8H21.958a.94.94,0,1,1,0-1.881H37.075a.94.94,0,1,1,0,1.881" transform="translate(-9.723 -30.03)" fill="#467886"/>
          <path id="패스_77" data-name="패스 77" d="M37.075,76.012H21.958a.94.94,0,1,1,0-1.881H37.075a.94.94,0,1,1,0,1.881" transform="translate(-9.723 -34.293)" fill="#467886"/>
          <path id="패스_78" data-name="패스 78" d="M68.268,73.853a1.225,1.225,0,0,1-1.732,1.732l-4.251-4.251A1.224,1.224,0,1,1,64.016,69.6Z" transform="translate(-28.647 -32.032)" fill="#fff"/>
          <path id="패스_79" data-name="패스 79" d="M67.062,76a1.606,1.606,0,0,1-1.144-.475l-4.251-4.251a1.618,1.618,0,1,1,2.289-2.289l4.251,4.251A1.619,1.619,0,0,1,67.062,76m-4.251-6.7a.831.831,0,0,0-.587,1.418l4.251,4.251a.851.851,0,0,0,1.175,0,.83.83,0,0,0,0-1.175L63.4,69.541a.827.827,0,0,0-.588-.243" transform="translate(-28.308 -31.693)" fill="#727171"/>
          <path id="패스_80" data-name="패스 80" d="M59.567,59.485a5.233,5.233,0,1,0,0,7.4,5.234,5.234,0,0,0,0-7.4" transform="translate(-23.423 -26.809)" fill="#fff"/>
          <path id="패스_81" data-name="패스 81" d="M55.529,68.472a5.627,5.627,0,1,1,3.978-1.648,5.588,5.588,0,0,1-3.978,1.648m0-10.465a4.838,4.838,0,1,0,3.422,1.417,4.807,4.807,0,0,0-3.422-1.417" transform="translate(-23.085 -26.47)" fill="#727171"/>
          <path id="패스_82" data-name="패스 82" d="M59.882,62.69a3.187,3.187,0,1,0,0,4.508,3.188,3.188,0,0,0,0-4.508" transform="translate(-25.184 -28.569)" fill="#467886"/>
        </g>
      </g>
    </g>
  </g>
</svg>
