<svg xmlns="http://www.w3.org/2000/svg" xmlns:xlink="http://www.w3.org/1999/xlink" width="120.14" height="120.14" viewBox="0 0 120.14 120.14">
  <defs>
    <clipPath id="clip-path">
      <rect id="사각형_27" data-name="사각형 27" width="49.94" height="53.652" fill="none"/>
    </clipPath>
  </defs>
  <g id="그룹_63" data-name="그룹 63" transform="translate(-1247.188 -716.843)">
    <g id="타원_12" data-name="타원 12" transform="translate(1247.188 716.843)" fill="#fff" stroke="#c2c2c2" stroke-width="1">
      <circle cx="60.07" cy="60.07" r="60.07" stroke="none"/>
      <circle cx="60.07" cy="60.07" r="59.57" fill="none"/>
    </g>
    <g id="그룹_31" data-name="그룹 31" transform="translate(-718.713 -5980.17)">
      <text id="안전" transform="translate(2011 6793.884)" fill="#303030" font-size="16" font-family="NanumSquareR, NanumSquare"><tspan x="0" y="0">안전</tspan></text>
      <g id="그룹_24" data-name="그룹 24" transform="translate(2001 6716.282)">
        <g id="그룹_23" data-name="그룹 23" transform="translate(0 0)" clip-path="url(#clip-path)">
          <path id="패스_131" data-name="패스 131" d="M21.313,1.75A74.458,74.458,0,0,1,1.75,9.027V20A30.249,30.249,0,0,0,21.312,48.3,30.248,30.248,0,0,0,40.875,20V9.027A74.48,74.48,0,0,1,21.313,1.75" transform="translate(-0.782 -0.783)" fill="#fff"/>
          <path id="패스_132" data-name="패스 132" d="M20.53,48.482a.956.956,0,0,1-.342-.062A31.372,31.372,0,0,1,0,19.217V8.245A.968.968,0,0,1,.75,7.3,73.069,73.069,0,0,0,20.057.124a.963.963,0,0,1,.945,0A73.1,73.1,0,0,0,40.31,7.3a.968.968,0,0,1,.751.943V19.217a31.372,31.372,0,0,1-20.189,29.2.956.956,0,0,1-.342.062M1.935,9.011V19.217A29.43,29.43,0,0,0,20.53,46.478a29.431,29.431,0,0,0,18.6-27.261V9.011a74.9,74.9,0,0,1-18.6-6.937,74.885,74.885,0,0,1-18.6,6.937" transform="translate(0 0)" fill="#727171"/>
          <path id="패스_133" data-name="패스 133" d="M37.134,1.75V48.3A30.248,30.248,0,0,0,56.7,20V9.027A74.48,74.48,0,0,1,37.134,1.75" transform="translate(-16.603 -0.783)" fill="#727171"/>
          <path id="패스_134" data-name="패스 134" d="M68.631,63.011A12.333,12.333,0,1,0,56.3,75.344,12.334,12.334,0,0,0,68.631,63.011" transform="translate(-19.658 -22.66)" fill="#fff"/>
          <path id="패스_135" data-name="패스 135" d="M55.515,75.53a13.3,13.3,0,1,1,13.3-13.3,13.315,13.315,0,0,1-13.3,13.3m0-24.666A11.365,11.365,0,1,0,66.881,62.23,11.379,11.379,0,0,0,55.515,50.864" transform="translate(-18.875 -21.878)" fill="#727171"/>
          <path id="패스_136" data-name="패스 136" d="M68.042,65.506a9.25,9.25,0,1,0-9.25,9.249,9.249,9.249,0,0,0,9.25-9.249" transform="translate(-22.152 -25.154)" fill="#efefef"/>
          <path id="패스_137" data-name="패스 137" d="M58.54,76.595h0a.965.965,0,0,1-.684-.284l-3.924-3.924A.968.968,0,0,1,55.3,71.018l3.24,3.24,7.416-7.417a.968.968,0,1,1,1.368,1.368l-8.1,8.1a.965.965,0,0,1-.684.284" transform="translate(-23.988 -29.761)" fill="#d1b28a"/>
        </g>
      </g>
    </g>
  </g>
</svg>
