<svg xmlns="http://www.w3.org/2000/svg" xmlns:xlink="http://www.w3.org/1999/xlink" width="120.14" height="120.14" viewBox="0 0 120.14 120.14">
  <defs>
    <clipPath id="clip-path">
      <rect id="사각형_24" data-name="사각형 24" width="44.272" height="49.614" fill="none"/>
    </clipPath>
  </defs>
  <g id="그룹_61" data-name="그룹 61" transform="translate(-1509.928 -716.843)">
    <g id="타원_9" data-name="타원 9" transform="translate(1509.928 716.843)" fill="#fff" stroke="#c2c2c2" stroke-width="1">
      <circle cx="60.07" cy="60.07" r="60.07" stroke="none"/>
      <circle cx="60.07" cy="60.07" r="59.57" fill="none"/>
    </g>
    <g id="그룹_30" data-name="그룹 30" transform="translate(-458.138 -6087.927)">
      <text id="윤리" transform="translate(2014 6899.622)" fill="#303030" font-size="16" font-family="NanumSquareR, NanumSquare"><tspan x="0" y="0">윤리</tspan></text>
      <g id="그룹_18" data-name="그룹 18" transform="translate(2006 6826.057)">
        <path id="패스_106" data-name="패스 106" d="M11.418,2.352V19.214l4.976-3.87,4.976,3.87V2.352Z" transform="translate(-5.105 -1.052)" fill="#d1b28a"/>
        <g id="그룹_17" data-name="그룹 17" transform="translate(0 0)">
          <g id="그룹_16" data-name="그룹 16" clip-path="url(#clip-path)">
            <path id="패스_107" data-name="패스 107" d="M67.6,13.819H56.383a1.3,1.3,0,0,1-1.3-1.3V1.3A1.3,1.3,0,0,1,57.3.382L68.521,11.6a1.3,1.3,0,0,1-.919,2.218m-9.92-2.6h6.784L57.682,4.437Z" transform="translate(-24.63 0)" fill="#595757"/>
            <path id="패스_108" data-name="패스 108" d="M42.972,49.615H1.3a1.3,1.3,0,0,1-1.3-1.3V1.3A1.3,1.3,0,0,1,1.3,0H31.753a1.3,1.3,0,0,1,.919.38L43.891,11.6a1.3,1.3,0,0,1,.38.919v35.8a1.3,1.3,0,0,1-1.3,1.3M2.6,47.017H41.673V13.059L31.215,2.6H2.6Z" transform="translate(0 -0.001)" fill="#595757"/>
            <path id="패스_109" data-name="패스 109" d="M41.261,47.235H17.487a1.3,1.3,0,1,1,0-2.6H41.261a1.3,1.3,0,1,1,0,2.6" transform="translate(-7.238 -19.959)" fill="#595757"/>
            <path id="패스_110" data-name="패스 110" d="M41.261,59.235H17.487a1.3,1.3,0,1,1,0-2.6H41.261a1.3,1.3,0,1,1,0,2.6" transform="translate(-7.238 -25.325)" fill="#595757"/>
            <path id="패스_111" data-name="패스 111" d="M41.261,71.235H17.487a1.3,1.3,0,1,1,0-2.6H41.261a1.3,1.3,0,1,1,0,2.6" transform="translate(-7.238 -30.69)" fill="#595757"/>
          </g>
        </g>
      </g>
    </g>
  </g>
</svg>
