<svg xmlns="http://www.w3.org/2000/svg" width="120" height="120" viewBox="0 0 120 120">
  <g id="그룹_57" data-name="그룹 57" transform="translate(-1378.938 -532.018)">
    <g id="타원_4" data-name="타원 4" transform="translate(1378.938 532.018)" fill="#fff" stroke="#c2c2c2" stroke-width="1">
      <circle cx="60" cy="60" r="60" stroke="none"/>
      <circle cx="60" cy="60" r="59.5" fill="none"/>
    </g>
    <g id="그룹_36" data-name="그룹 36" transform="translate(-792.063 -6267.049)">
      <text id="가치경영" transform="translate(2202 6895.211)" fill="#303030" font-size="16" font-family="NanumSquareR, NanumSquare"><tspan x="0" y="0">가치경영</tspan></text>
      <g id="그룹_6" data-name="그룹 6" transform="translate(2210 6820)">
        <path id="패스_16" data-name="패스 16" d="M432.117,17.469a17.47,17.47,0,1,0-17.47,17.47,17.47,17.47,0,0,0,17.47-17.47" transform="translate(-392.677 0.001)" fill="#efefef"/>
        <path id="패스_17" data-name="패스 17" d="M433.7,57.61c-1.406-2.251-4.362.563-4.362.563l-3.939,3.1a6.485,6.485,0,0,1-3.729,1.336h-.021a2.037,2.037,0,0,0,1.5-2.322,2.242,2.242,0,0,0-2.671-2.111H410.064c-7.174,0-9.989,6.895-9.989,6.895l6.472,6.613a6.553,6.553,0,0,1,4.925-1.829h8.161s3.8.422,7.879-3.376l5.7-5.347a2.452,2.452,0,0,0,.493-3.517" transform="translate(-394.017 -26.246)" fill="#fff"/>
        <path id="패스_18" data-name="패스 18" d="M399.266,66.409a.94.94,0,0,1-.87-1.3c.125-.305,3.142-7.48,10.859-7.48H419.6a3.481,3.481,0,0,1,2.446.6,3.242,3.242,0,0,1,1.227,2.352,2.967,2.967,0,0,1-.691,2.4,4.2,4.2,0,0,1-2.916,1.177h-7.458a.94.94,0,1,1,0-1.881h7.458a2.385,2.385,0,0,0,1.518-.554,1.091,1.091,0,0,0,.22-.933,1.455,1.455,0,0,0-.486-1.054,1.661,1.661,0,0,0-1.088-.235.923.923,0,0,1-.163.014H409.255c-6.436,0-9.012,6.054-9.119,6.312a.943.943,0,0,1-.871.582" transform="translate(-393.208 -26.649)" fill="#727171"/>
        <path id="패스_19" data-name="패스 19" d="M411.31,71.811a.94.94,0,0,1-.717-1.548,7.479,7.479,0,0,1,5.643-2.162H424.4a.958.958,0,0,1,.1.005c.135.015,3.455.3,7.134-3.13l5.7-5.345a.913.913,0,0,1,.121-.1c.255-.181,1.054-.9.217-2.236a.757.757,0,0,0-.567-.424,3.958,3.958,0,0,0-2.35,1.17c-.02.019-.044.039-.066.057l-3.939,3.1a7.431,7.431,0,0,1-4.31,1.537.94.94,0,0,1,0-1.881,5.591,5.591,0,0,0,3.13-1.121l3.925-3.084c.328-.3,2.107-1.86,3.845-1.641a2.633,2.633,0,0,1,1.929,1.294,3.4,3.4,0,0,1-.7,4.749l-5.648,5.3c-4.113,3.829-8.008,3.675-8.563,3.632h-8.12a5.745,5.745,0,0,0-4.207,1.5.939.939,0,0,1-.719.333" transform="translate(-398.78 -25.437)" fill="#727171"/>
        <rect id="사각형_16" data-name="사각형 16" width="6.05" height="11.809" transform="matrix(0.707, -0.707, 0.707, 0.707, 0.94, 41.92)" fill="#727171"/>
        <path id="패스_20" data-name="패스 20" d="M398.094,82.813a.938.938,0,0,1-.665-.276l-8.35-8.35a.94.94,0,0,1,0-1.33l4.278-4.278a.97.97,0,0,1,1.33,0l8.35,8.351a.94.94,0,0,1,0,1.33l-4.278,4.278a.938.938,0,0,1-.665.276m-7.02-9.291,7.02,7.021,2.948-2.949-7.02-7.021Z" transform="translate(-388.803 -31.602)" fill="#727171"/>
        <path id="패스_21" data-name="패스 21" d="M438.81,29.778a1.38,1.38,0,0,0-1.311-.952H433.21l-1.326-4.079a1.378,1.378,0,0,0-2.622,0l-1.325,4.079h-4.289a1.379,1.379,0,0,0-.81,2.495l3.468,2.52-1.324,4.077a1.379,1.379,0,0,0,2.122,1.543l3.469-2.52,3.469,2.52a1.379,1.379,0,0,0,2.122-1.543l-1.326-4.077,3.469-2.52a1.379,1.379,0,0,0,.5-1.542" transform="translate(-404.284 -11.007)" fill="#467886"/>
        <path id="패스_22" data-name="패스 22" d="M419.759,9.216a1,1,0,0,0-.95-.689H415.7l-.96-2.954a1,1,0,0,0-1.9,0l-.96,2.954h-3.106a1,1,0,0,0-.587,1.806l2.512,1.826-.959,2.953a1,1,0,0,0,1.537,1.117l2.512-1.825,2.512,1.825a1,1,0,0,0,1.537-1.117l-.961-2.953,2.513-1.826a1,1,0,0,0,.363-1.117" transform="translate(-397.582 -2.258)" fill="#467886"/>
        <path id="패스_23" data-name="패스 23" d="M457.259,9.216a1,1,0,0,0-.95-.689H453.2l-.96-2.954a1,1,0,0,0-1.9,0l-.96,2.954h-3.106a1,1,0,0,0-.586,1.806l2.511,1.826-.958,2.953a1,1,0,0,0,1.537,1.117l2.512-1.825,2.512,1.825a1,1,0,0,0,1.537-1.117l-.961-2.953,2.513-1.826a1,1,0,0,0,.363-1.117" transform="translate(-414.93 -2.258)" fill="#467886"/>
      </g>
    </g>
  </g>
</svg>
