<svg xmlns="http://www.w3.org/2000/svg" xmlns:xlink="http://www.w3.org/1999/xlink" width="120" height="120" viewBox="0 0 120 120">
  <defs>
    <clipPath id="clip-path">
      <rect id="사각형_15" data-name="사각형 15" width="49.613" height="48.952" fill="none"/>
    </clipPath>
  </defs>
  <g id="그룹_62" data-name="그룹 62" transform="translate(-1378.938 -716.843)">
    <g id="타원_11" data-name="타원 11" transform="translate(1378.938 716.843)" fill="#fff" stroke="#c2c2c2" stroke-width="1">
      <circle cx="60" cy="60" r="60" stroke="none"/>
      <circle cx="60" cy="60" r="59.5" fill="none"/>
    </g>
    <g id="그룹_32" data-name="그룹 32" transform="translate(-682.869 -5982.59)">
      <text id="상생" transform="translate(2107.307 6793.884)" fill="#303030" font-size="16" font-family="NanumSquareR, NanumSquare"><tspan x="0" y="0">상생</tspan></text>
      <g id="그룹_5" data-name="그룹 5" transform="translate(2097 6720.981)">
        <g id="그룹_4" data-name="그룹 4" clip-path="url(#clip-path)">
          <path id="패스_5" data-name="패스 5" d="M59.228,62.889a4.339,4.339,0,0,1-4.334-4.334V32.468a1.3,1.3,0,0,1,2.6,0V58.555a1.736,1.736,0,1,0,3.472,0V48.447a1.3,1.3,0,1,1,2.6,0V58.555a4.339,4.339,0,0,1-4.334,4.334" transform="translate(-24.545 -13.937)" fill="#d1b28a"/>
          <path id="패스_6" data-name="패스 6" d="M70.456,63.326a4.339,4.339,0,0,1-4.333-4.334V48.884a1.3,1.3,0,1,1,2.6,0V58.993a1.736,1.736,0,0,0,3.472,0V33.446a1.3,1.3,0,1,1,2.6,0V58.993a4.339,4.339,0,0,1-4.334,4.334" transform="translate(-29.566 -14.374)" fill="#d1b28a"/>
          <path id="패스_7" data-name="패스 7" d="M64.034,10.668a5.334,5.334,0,1,1,5.334-5.334,5.34,5.34,0,0,1-5.334,5.334m0-8.07A2.736,2.736,0,1,0,66.77,5.334,2.74,2.74,0,0,0,64.034,2.6" transform="translate(-26.247)" fill="#d1b28a"/>
          <path id="패스_8" data-name="패스 8" d="M80.649,46.489a3.476,3.476,0,0,1-3.473-3.473V33.6a1.3,1.3,0,1,1,2.6,0v9.42a.875.875,0,0,0,1.749,0V33.6a1.3,1.3,0,1,1,2.6,0v9.42a3.476,3.476,0,0,1-3.473,3.473" transform="translate(-34.508 -14.441)" fill="#d1b28a"/>
          <path id="패스_9" data-name="패스 9" d="M43.944,32.745a1.3,1.3,0,0,1-1.172-1.858l1.858-3.906c.071-.164,2.2-4.887,7.259-4.887h9.934a6.868,6.868,0,0,1,6.859,6.861,1.3,1.3,0,0,1-2.6,0,4.267,4.267,0,0,0-4.262-4.262H51.888c-3.382,0-4.88,3.334-4.895,3.368L45.118,32a1.3,1.3,0,0,1-1.174.741" transform="translate(-19.068 -9.879)" fill="#d1b28a"/>
          <path id="패스_10" data-name="패스 10" d="M48.051,43.8a1.3,1.3,0,0,1-1.177-1.85l4.494-9.616a1.3,1.3,0,0,1,2.354,1.1l-4.494,9.617a1.3,1.3,0,0,1-1.178.749" transform="translate(-20.904 -14.125)" fill="#d1b28a"/>
          <path id="패스_11" data-name="패스 11" d="M23.5,62.889a4.339,4.339,0,0,1-4.334-4.334V48.447a1.3,1.3,0,1,1,2.6,0V58.555a1.736,1.736,0,1,0,3.472,0V32.468a1.3,1.3,0,0,1,2.6,0V58.555A4.339,4.339,0,0,1,23.5,62.889" transform="translate(-8.57 -13.937)" fill="#595757"/>
          <path id="패스_12" data-name="패스 12" d="M12.271,63.326a4.339,4.339,0,0,1-4.334-4.334V33.446a1.3,1.3,0,1,1,2.6,0V58.993a1.736,1.736,0,0,0,3.472,0V48.884a1.3,1.3,0,1,1,2.6,0V58.993a4.339,4.339,0,0,1-4.333,4.334" transform="translate(-3.549 -14.374)" fill="#595757"/>
          <path id="패스_13" data-name="패스 13" d="M17.077,10.668a5.334,5.334,0,1,1,5.334-5.334,5.34,5.34,0,0,1-5.334,5.334m0-8.07a2.736,2.736,0,1,0,2.736,2.736A2.74,2.74,0,0,0,17.077,2.6" transform="translate(-5.251)" fill="#595757"/>
          <path id="패스_14" data-name="패스 14" d="M3.473,46.489A3.476,3.476,0,0,1,0,43.017V33.6a1.3,1.3,0,1,1,2.6,0v9.42a.875.875,0,0,0,1.749,0V33.6a1.3,1.3,0,1,1,2.6,0v9.42a3.476,3.476,0,0,1-3.473,3.473" transform="translate(0 -14.441)" fill="#595757"/>
          <path id="패스_15" data-name="패스 15" d="M24.547,41.612a3.817,3.817,0,0,1-3.51-2.334L16.775,29.148a1.3,1.3,0,0,1,2.4-1.008l4.263,10.131a1.209,1.209,0,1,0,2.229-.938l-3.977-9.28c-.055-.123-1.547-3.359-4.891-3.359H6.859A4.267,4.267,0,0,0,2.6,28.956a1.3,1.3,0,1,1-2.6,0A6.867,6.867,0,0,1,6.859,22.1h9.934c5.063,0,7.188,4.723,7.276,4.924l3.985,9.3a3.813,3.813,0,0,1-3.507,5.295" transform="translate(0 -9.88)" fill="#595757"/>
        </g>
      </g>
    </g>
  </g>
</svg>
