<svg xmlns="http://www.w3.org/2000/svg" xmlns:xlink="http://www.w3.org/1999/xlink" width="120.14" height="120.14" viewBox="0 0 120.14 120.14">
  <defs>
    <clipPath id="clip-path">
      <rect id="사각형_18" data-name="사각형 18" width="52.151" height="52.15" fill="none"/>
    </clipPath>
  </defs>
  <g id="그룹_56" data-name="그룹 56" transform="translate(-1247.188 -532.018)">
    <g id="타원_1" data-name="타원 1" transform="translate(1247.188 532.018)" fill="#fff" stroke="#c2c2c2" stroke-width="1">
      <circle cx="60.07" cy="60.07" r="60.07" stroke="none"/>
      <circle cx="60.07" cy="60.07" r="59.57" fill="none"/>
    </g>
    <g id="그룹_33" data-name="그룹 33" transform="translate(-921.743 -6164.27)">
      <text id="투명경영" transform="translate(2200 6792.432)" fill="#303030" font-size="16" font-family="NanumSquareR, NanumSquare"><tspan x="0" y="0">투명경영</tspan></text>
      <g id="그룹_9" data-name="그룹 9" transform="translate(2203 6716.283)">
        <g id="그룹_8" data-name="그룹 8" clip-path="url(#clip-path)">
          <path id="패스_41" data-name="패스 41" d="M46.679,24.215A22.465,22.465,0,1,0,24.214,46.678,22.465,22.465,0,0,0,46.679,24.215" transform="translate(-0.81 -0.81)" fill="#fff"/>
          <path id="패스_42" data-name="패스 42" d="M45.77,43.684H2.272a.94.94,0,0,1,0-1.881h43.5a.94.94,0,1,1,0,1.881" transform="translate(-0.616 -19.338)" fill="#467886"/>
          <path id="패스_43" data-name="패스 43" d="M45.188,17.794H10.069a.94.94,0,1,1,0-1.881H45.188a.94.94,0,1,1,0,1.881" transform="translate(-4.223 -7.361)" fill="#467886"/>
          <path id="패스_44" data-name="패스 44" d="M45.188,69.574H10.069a.94.94,0,1,1,0-1.881H45.188a.94.94,0,1,1,0,1.881" transform="translate(-4.223 -31.315)" fill="#467886"/>
          <path id="패스_45" data-name="패스 45" d="M42.743,46.708a.941.941,0,0,1-.94-.94V2.268a.94.94,0,0,1,1.881,0v43.5a.941.941,0,0,1-.94.94" transform="translate(-19.338 -0.614)" fill="#467886"/>
          <path id="패스_46" data-name="패스 46" d="M32.274,46.809c-7.347,0-13.1-10.28-13.1-23.4S24.927,0,32.274,0s13.1,10.281,13.1,23.405-5.755,23.4-13.1,23.4m0-44.928c-6.188,0-11.222,9.656-11.222,21.524s5.034,21.523,11.222,21.523S43.5,35.273,43.5,23.405,38.461,1.881,32.274,1.881" transform="translate(-8.869)" fill="#467886"/>
          <path id="패스_47" data-name="패스 47" d="M23.405,46.809a23.4,23.4,0,1,1,23.405-23.4,23.431,23.431,0,0,1-23.405,23.4m0-44.928A21.524,21.524,0,1,0,44.93,23.405,21.549,21.549,0,0,0,23.405,1.881" fill="#727171"/>
          <path id="패스_48" data-name="패스 48" d="M82.758,79.213a2.505,2.505,0,0,1-3.544,3.543l-8.7-8.7a2.506,2.506,0,0,1,3.543-3.545Z" transform="translate(-32.282 -32.281)" fill="#fff"/>
          <path id="패스_49" data-name="패스 49" d="M80.178,83.621a3.424,3.424,0,0,1-2.438-1.01l-8.7-8.7a3.446,3.446,0,1,1,4.873-4.874l8.7,8.7a3.446,3.446,0,0,1-2.437,5.882m-8.7-13.708a1.565,1.565,0,0,0-1.107,2.672l8.7,8.7a1.6,1.6,0,0,0,2.213,0,1.564,1.564,0,0,0,0-2.213l-8.7-8.7a1.556,1.556,0,0,0-1.107-.458" transform="translate(-31.473 -31.472)" fill="#727171"/>
          <path id="패스_50" data-name="패스 50" d="M64.959,49.817a10.706,10.706,0,1,0,0,15.14,10.705,10.705,0,0,0,0-15.14" transform="translate(-21.596 -21.595)" fill="#fff"/>
          <path id="패스_51" data-name="패스 51" d="M56.583,68.223a11.646,11.646,0,1,1,8.235-3.411,11.569,11.569,0,0,1-8.235,3.411m0-21.412a9.766,9.766,0,1,0,6.906,2.861,9.7,9.7,0,0,0-6.906-2.861" transform="translate(-20.791 -20.785)" fill="#727171"/>
          <path id="패스_52" data-name="패스 52" d="M65.417,54.5a7.719,7.719,0,1,0,0,10.917,7.718,7.718,0,0,0,0-10.917" transform="translate(-24.166 -24.166)" fill="#efefef"/>
        </g>
      </g>
    </g>
  </g>
</svg>
