<svg xmlns="http://www.w3.org/2000/svg" xmlns:xlink="http://www.w3.org/1999/xlink" width="120.14" height="120.14" viewBox="0 0 120.14 120.14">
  <defs>
    <clipPath id="clip-path">
      <rect id="사각형_25" data-name="사각형 25" width="49.614" height="46.262" fill="none"/>
    </clipPath>
  </defs>
  <g id="그룹_60" data-name="그룹 60" transform="translate(-1641.298 -716.843)">
    <g id="타원_10" data-name="타원 10" transform="translate(1641.298 716.843)" fill="#fff" stroke="#c2c2c2" stroke-width="1">
      <circle cx="60.07" cy="60.07" r="60.07" stroke="none"/>
      <circle cx="60.07" cy="60.07" r="59.57" fill="none"/>
    </g>
    <g id="그룹_29" data-name="그룹 29" transform="translate(-420.439 -6089.603)">
      <text id="창의" transform="translate(2107 6899.622)" fill="#303030" font-size="16" font-family="NanumSquareR, NanumSquare"><tspan x="0" y="0">창의</tspan></text>
      <g id="그룹_20" data-name="그룹 20" transform="translate(2097 6829.409)">
        <g id="그룹_19" data-name="그룹 19" transform="translate(0 0)" clip-path="url(#clip-path)">
          <path id="패스_112" data-name="패스 112" d="M40.619,30.788a1.3,1.3,0,0,1-1.3-1.3V27.018a1.3,1.3,0,0,1,.54-1.055,12.894,12.894,0,1,0-15.041,0,1.3,1.3,0,0,1,.541,1.055v2.471a1.3,1.3,0,0,1-2.6,0V27.665a15.493,15.493,0,1,1,19.157,0v1.824a1.3,1.3,0,0,1-1.3,1.3" transform="translate(-7.533 0)" fill="#595757"/>
          <path id="패스_113" data-name="패스 113" d="M43.715,63.466H24.791a3.657,3.657,0,0,1-2.909-5.883A3.656,3.656,0,0,1,24.791,51.7H43.715a3.655,3.655,0,0,1,2.909,5.882,3.656,3.656,0,0,1-2.909,5.883M24.791,54.3a1.061,1.061,0,0,0-.358,2.062,1.3,1.3,0,0,1,0,2.445,1.061,1.061,0,0,0,.358,2.062H43.715a1.061,1.061,0,0,0,.358-2.062,1.3,1.3,0,0,1,0-2.445,1.061,1.061,0,0,0-.357-2.062Z" transform="translate(-9.446 -23.117)" fill="#595757"/>
          <path id="패스_114" data-name="패스 114" d="M40.185,77.391H34.419a6.481,6.481,0,0,1-6.474-6.474,1.3,1.3,0,0,1,2.6,0,3.88,3.88,0,0,0,3.874,3.875h5.766a3.88,3.88,0,0,0,3.875-3.875,1.3,1.3,0,1,1,2.6,0,6.481,6.481,0,0,1-6.474,6.474" transform="translate(-12.495 -31.128)" fill="#595757"/>
          <path id="패스_115" data-name="패스 115" d="M5.143,28.626H1.3a1.3,1.3,0,1,1,0-2.6H5.143a1.3,1.3,0,1,1,0,2.6" transform="translate(0 -11.638)" fill="#d1b28a"/>
          <path id="패스_116" data-name="패스 116" d="M83.23,28.626H79.386a1.3,1.3,0,1,1,0-2.6H83.23a1.3,1.3,0,1,1,0,2.6" transform="translate(-34.915 -11.638)" fill="#d1b28a"/>
          <path id="패스_117" data-name="패스 117" d="M7,48.332a1.3,1.3,0,0,1-.651-2.425l3.329-1.921a1.3,1.3,0,1,1,1.3,2.25L7.646,48.158A1.3,1.3,0,0,1,7,48.332" transform="translate(-2.547 -19.589)" fill="#d1b28a"/>
          <path id="패스_118" data-name="패스 118" d="M74.621,9.289a1.3,1.3,0,0,1-.651-2.425L77.3,4.942a1.3,1.3,0,1,1,1.3,2.25L75.27,9.114a1.3,1.3,0,0,1-.649.174" transform="translate(-32.784 -2.132)" fill="#d1b28a"/>
          <path id="패스_119" data-name="패스 119" d="M77.948,48.332a1.3,1.3,0,0,1-.649-.174l-3.329-1.922a1.3,1.3,0,1,1,1.3-2.25L78.6,45.907a1.3,1.3,0,0,1-.651,2.425" transform="translate(-32.784 -19.589)" fill="#d1b28a"/>
          <path id="패스_120" data-name="패스 120" d="M10.324,9.289a1.3,1.3,0,0,1-.649-.174L6.346,7.192a1.3,1.3,0,1,1,1.3-2.25l3.328,1.922a1.3,1.3,0,0,1-.651,2.425" transform="translate(-2.547 -2.132)" fill="#d1b28a"/>
          <path id="패스_121" data-name="패스 121" d="M46.667,20.6a9.4,9.4,0,1,0-9.4,9.4,9.4,9.4,0,0,0,9.4-9.4" transform="translate(-12.462 -5.01)" fill="#d1b28a"/>
          <path id="패스_122" data-name="패스 122" d="M43.819,25.036a1.3,1.3,0,0,1-1.3-1.3V17.655a1.3,1.3,0,0,1,2.6,0v6.082a1.3,1.3,0,0,1-1.3,1.3" transform="translate(-19.012 -7.313)" fill="#595757"/>
          <path id="패스_123" data-name="패스 123" d="M45.2,35.934a1.728,1.728,0,1,0-1.728,1.728A1.728,1.728,0,0,0,45.2,35.934" transform="translate(-18.666 -15.294)" fill="#595757"/>
        </g>
      </g>
    </g>
  </g>
</svg>
