<svg xmlns="http://www.w3.org/2000/svg" width="358" height="223.085" viewBox="0 0 358 223.085">
  <g id="그룹_157" data-name="그룹 157" transform="translate(-6618 -3606.99)">
    <text id="김혜경_전영미" data-name="김혜경
전영미" transform="translate(6639.808 3811.075)" fill="#303030" font-size="11" font-family="NanumSquareB, NanumSquare"><tspan x="0" y="0">김혜경</tspan><tspan x="0" y="16">전영미</tspan></text>
    <text id="장인섭_이인석" data-name="장인섭
이인석" transform="translate(6730.827 3811.075)" fill="#303030" font-size="11" font-family="NanumSquareB, NanumSquare"><tspan x="0" y="0">장인섭</tspan><tspan x="0" y="16">이인석</tspan></text>
    <text id="이상봉" transform="translate(6801.285 3811.075)" fill="#303030" font-size="11" font-family="NanumSquareB, NanumSquare"><tspan x="0" y="0">이상봉</tspan></text>
    <text id="외주팀_10-12명" data-name="외주팀
10-12명" transform="translate(6886.553 3811.075)" fill="#303030" font-size="11" font-family="NanumSquareB, NanumSquare"><tspan x="-15" y="0">외주팀</tspan><tspan x="-20" y="16">10-12명</tspan></text>
    <text id="최현호_김영재" data-name="최현호
김영재" transform="translate(6942.675 3811.075)" fill="#303030" font-size="11" font-family="NanumSquareB, NanumSquare"><tspan x="0" y="0">최현호</tspan><tspan x="0" y="16">김영재</tspan></text>
    <line id="선_34" data-name="선 34" x2="15.635" transform="translate(6790.815 3661.842)" fill="none" stroke="#137989" stroke-width="1"/>
    <line id="선_41" data-name="선 41" x2="9.525" transform="translate(6781.29 3692.575)" fill="none" stroke="#137989" stroke-width="1"/>
    <line id="선_40" data-name="선 40" x2="15.635" transform="translate(6790.815 3723.182)" fill="none" stroke="#137989" stroke-width="1"/>
    <line id="선_32" data-name="선 32" y2="114.255" transform="translate(6790.815 3636.991)" fill="none" stroke="#137989" stroke-width="1"/>
    <line id="선_47" data-name="선 47" y2="11.467" transform="translate(6746.537 3751.205)" fill="none" stroke="#137989" stroke-width="1"/>
    <line id="선_72" data-name="선 72" y2="11.467" transform="translate(6816.995 3751.205)" fill="none" stroke="#137989" stroke-width="1"/>
    <line id="선_73" data-name="선 73" y2="11.467" transform="translate(6887.452 3751.205)" fill="none" stroke="#137989" stroke-width="1"/>
    <line id="선_74" data-name="선 74" y2="11.467" transform="translate(6955.529 3751.205)" fill="none" stroke="#137989" stroke-width="1"/>
    <line id="선_71" data-name="선 71" y2="11.467" transform="translate(6655.609 3751.205)" fill="none" stroke="#137989" stroke-width="1"/>
    <line id="선_42" data-name="선 42" x1="299.92" transform="translate(6655.609 3751.205)" fill="none" stroke="#137989" stroke-linecap="square" stroke-width="1"/>
    <text id="디자인_기획팀" data-name="디자인 기획팀" transform="translate(6618 3788.377)" fill="#137989" font-size="13" font-family="NanumSquareB, NanumSquare"><tspan x="0" y="0">디자인 기획팀</tspan></text>
    <text id="홍보전략팀" transform="translate(6716 3788.377)" fill="#137989" font-size="13" font-family="NanumSquareB, NanumSquare"><tspan x="0" y="0">홍보전략팀</tspan></text>
    <text id="영상팀" transform="translate(6799 3788.377)" fill="#137989" font-size="13" font-family="NanumSquareB, NanumSquare"><tspan x="0" y="0">영상팀</tspan></text>
    <text id="행사지원팀" transform="translate(6857 3788.377)" fill="#137989" font-size="13" font-family="NanumSquareB, NanumSquare"><tspan x="0" y="0">행사지원팀</tspan></text>
    <text id="A_S팀" data-name="A/S팀" transform="translate(6941 3788.377)" fill="#137989" font-size="13" font-family="NanumSquareB, NanumSquare"><tspan x="0" y="0">A/S팀</tspan></text>
    <g id="사각형_44" data-name="사각형 44" transform="translate(6655.683 3680.185)" fill="none" stroke="#137989" stroke-width="1">
      <path d="M12.409,0H113.446a12.409,12.409,0,0,1,12.409,12.409V24.818a0,0,0,0,1,0,0H12.409A12.409,12.409,0,0,1,0,12.409v0A12.409,12.409,0,0,1,12.409,0Z" stroke="none"/>
      <path d="M12.409.5H113.446a11.909,11.909,0,0,1,11.909,11.909V24.284a.034.034,0,0,1-.034.034H12.409A11.909,11.909,0,0,1,.5,12.409v0A11.909,11.909,0,0,1,12.409.5Z" fill="none"/>
    </g>
    <g id="사각형_285" data-name="사각형 285" transform="translate(6806.45 3649.433)" fill="none" stroke="#137989" stroke-width="1">
      <path d="M12.409,0H113.446a12.409,12.409,0,0,1,12.409,12.409V24.818a0,0,0,0,1,0,0H12.409A12.409,12.409,0,0,1,0,12.409v0A12.409,12.409,0,0,1,12.409,0Z" stroke="none"/>
      <path d="M12.409.5H113.446a11.909,11.909,0,0,1,11.909,11.909V24.284a.034.034,0,0,1-.034.034H12.409A11.909,11.909,0,0,1,.5,12.409v0A11.909,11.909,0,0,1,12.409.5Z" fill="none"/>
    </g>
    <g id="사각형_286" data-name="사각형 286" transform="translate(6806.45 3710.773)" fill="none" stroke="#137989" stroke-width="1">
      <path d="M12.409,0H113.446a12.409,12.409,0,0,1,12.409,12.409V24.818a0,0,0,0,1,0,0H12.409A12.409,12.409,0,0,1,0,12.409v0A12.409,12.409,0,0,1,12.409,0Z" stroke="none"/>
      <path d="M12.409.5H113.446a11.909,11.909,0,0,1,11.909,11.909V24.284a.034.034,0,0,1-.034.034H12.409A11.909,11.909,0,0,1,.5,12.409v0A11.909,11.909,0,0,1,12.409.5Z" fill="none"/>
    </g>
    <g id="그룹_39" data-name="그룹 39" transform="translate(6673.94 3684.977)">
      <text id="이면규" transform="translate(53.159 11)" fill="#010000" font-size="13" font-family="NanumSquareR, NanumSquare"><tspan x="0" y="0">이면규</tspan></text>
      <text id="홍보이사" transform="translate(0 10.428)" fill="#137989" font-size="11" font-family="NanumSquareB, NanumSquare"><tspan x="0" y="0">홍보이사</tspan></text>
      <line id="선_39" data-name="선 39" y2="13.33" transform="translate(47.831 0.952)" fill="none" stroke="#c5c5c5" stroke-width="1"/>
    </g>
    <g id="그룹_155" data-name="그룹 155" transform="translate(6820.04 3654.225)">
      <text id="이석기" transform="translate(62.192 11)" fill="#010000" font-size="13" font-family="NanumSquareR, NanumSquare"><tspan x="0" y="0">이석기</tspan></text>
      <text id="총괄이사" transform="translate(0 10.428)" fill="#137989" font-size="11" font-family="NanumSquareB, NanumSquare"><tspan x="0" y="0">총괄이사</tspan></text>
      <line id="선_39-2" data-name="선 39" y2="13.33" transform="translate(52.668 0.952)" fill="none" stroke="#c5c5c5" stroke-width="1"/>
    </g>
    <g id="그룹_156" data-name="그룹 156" transform="translate(6820.04 3715.565)">
      <text id="이승희" transform="translate(62.192 11)" fill="#010000" font-size="13" font-family="NanumSquareR, NanumSquare"><tspan x="0" y="0">이승희</tspan></text>
      <text id="업업이사" transform="translate(0 10.428)" fill="#137989" font-size="11" font-family="NanumSquareB, NanumSquare"><tspan x="0" y="0">업업이사</tspan></text>
      <line id="선_39-3" data-name="선 39" y2="13.33" transform="translate(52.668 0.952)" fill="none" stroke="#c5c5c5" stroke-width="1"/>
    </g>
    <g id="그룹_38" data-name="그룹 38" transform="translate(6709.756 3606.99)">
      <g id="사각형_43" data-name="사각형 43" transform="translate(162.364 31.749) rotate(180)" fill="#137989" stroke="#137989" stroke-width="1">
        <path d="M15.875,0H162.364a0,0,0,0,1,0,0V15.875a15.875,15.875,0,0,1-15.875,15.875H15.875A15.875,15.875,0,0,1,0,15.875v0A15.875,15.875,0,0,1,15.875,0Z" stroke="none"/>
        <path d="M15.875.5H161.82a.044.044,0,0,1,.044.044V15.875a15.375,15.375,0,0,1-15.375,15.375H15.875A15.375,15.375,0,0,1,.5,15.875v0A15.375,15.375,0,0,1,15.875.5Z" fill="none"/>
      </g>
      <g id="그룹_37" data-name="그룹 37" transform="translate(19.806 8.353)">
        <text id="이도엽" transform="translate(75.547 11)" fill="#fff" font-size="13" font-family="NanumSquareB, NanumSquare"><tspan x="0" y="0">이도엽</tspan></text>
        <text id="대표이사" transform="translate(0 11)" fill="#efd3af" font-size="13" font-family="NanumSquareB, NanumSquare"><tspan x="0" y="0">대표이사</tspan></text>
        <line id="선_39-4" data-name="선 39" y2="9.438" transform="translate(61.577 2.898)" fill="none" stroke="#fff" stroke-width="1"/>
      </g>
    </g>
    <circle id="타원_30" data-name="타원 30" cx="2.5" cy="2.5" r="2.5" transform="translate(6653 3762.377)" fill="#137989"/>
    <circle id="타원_31" data-name="타원 31" cx="2.38" cy="2.38" r="2.38" transform="translate(6744.157 3762.196)" fill="#137989"/>
    <circle id="타원_32" data-name="타원 32" cx="2.38" cy="2.38" r="2.38" transform="translate(6814.614 3762.196)" fill="#137989"/>
    <circle id="타원_33" data-name="타원 33" cx="2.38" cy="2.38" r="2.38" transform="translate(6885.072 3762.196)" fill="#137989"/>
    <circle id="타원_34" data-name="타원 34" cx="2.5" cy="2.5" r="2.5" transform="translate(6953 3762.377)" fill="#137989"/>
  </g>
</svg>
