<svg xmlns="http://www.w3.org/2000/svg" xmlns:xlink="http://www.w3.org/1999/xlink" width="120.14" height="120.14" viewBox="0 0 120.14 120.14">
  <defs>
    <clipPath id="clip-path">
      <rect id="사각형_21" data-name="사각형 21" width="49.368" height="52.151" fill="none"/>
    </clipPath>
  </defs>
  <g id="그룹_59" data-name="그룹 59" transform="translate(-1641.298 -532.018)">
    <g id="타원_8" data-name="타원 8" transform="translate(1641.298 532.018)" fill="#fff" stroke="#c2c2c2" stroke-width="1">
      <circle cx="60.07" cy="60.07" r="60.07" stroke="none"/>
      <circle cx="60.07" cy="60.07" r="59.57" fill="none"/>
    </g>
    <g id="그룹_34" data-name="그룹 34" transform="translate(-622.632 -6164.27)">
      <text id="역량강화" transform="translate(2295 6792.432)" fill="#303030" font-size="16" font-family="NanumSquareR, NanumSquare"><tspan x="0" y="0">역량강화</tspan></text>
      <g id="그룹_13" data-name="그룹 13" transform="translate(2299 6716.282)">
        <g id="그룹_12" data-name="그룹 12" clip-path="url(#clip-path)">
          <path id="패스_83" data-name="패스 83" d="M49.012,29.478A22.123,22.123,0,1,0,26.889,51.6,22.123,22.123,0,0,0,49.012,29.478" transform="translate(-2.205 -3.402)" fill="#efefef"/>
          <rect id="사각형_20" data-name="사각형 20" width="11.34" height="20.95" transform="translate(19.014 30.26)" fill="#fff"/>
          <path id="패스_84" data-name="패스 84" d="M45.912,77.39H34.572a.94.94,0,0,1-.94-.94V55.5a.94.94,0,0,1,.94-.94h11.34a.94.94,0,0,1,.94.94v20.95a.94.94,0,0,1-.94.94m-10.4-1.881h9.459V56.44H35.513Z" transform="translate(-15.558 -25.239)" fill="#727171"/>
          <path id="패스_85" data-name="패스 85" d="M46.528,6.684c0,2.726-1.916,4.935-4.28,4.935s-4.279-2.21-4.279-4.935S39.885,1.75,42.248,1.75s4.28,2.209,4.28,4.934" transform="translate(-17.565 -0.81)" fill="#fff"/>
          <path id="패스_86" data-name="패스 86" d="M41.44,11.75c-2.878,0-5.22-2.636-5.22-5.875S38.562,0,41.44,0s5.22,2.635,5.22,5.875-2.342,5.875-5.22,5.875m0-9.869C39.6,1.881,38.1,3.673,38.1,5.875s1.5,3.994,3.339,3.994,3.339-1.792,3.339-3.994-1.5-3.994-3.339-3.994" transform="translate(-16.755)" fill="#727171"/>
          <path id="패스_87" data-name="패스 87" d="M42.251,1.75c-2.334,0-4.23,2.154-4.277,4.831a4.421,4.421,0,0,0,2.317-2.039,2.676,2.676,0,0,0,1.742.643h4.3A4.4,4.4,0,0,0,42.251,1.75" transform="translate(-17.567 -0.81)" fill="#727171"/>
          <path id="패스_88" data-name="패스 88" d="M43.51,10.8a.563.563,0,1,0-.563.562.564.564,0,0,0,.563-.562" transform="translate(-19.607 -4.734)" fill="#727171"/>
          <path id="패스_89" data-name="패스 89" d="M48.51,10.8a.562.562,0,1,0-.562.562.563.563,0,0,0,.562-.562" transform="translate(-21.92 -4.734)" fill="#727171"/>
          <path id="패스_90" data-name="패스 90" d="M44.52,14.777a2.083,2.083,0,0,1-1.484-.616.537.537,0,1,1,.76-.759,1.047,1.047,0,0,0,1.448,0,.537.537,0,1,1,.76.759,2.083,2.083,0,0,1-1.484.616" transform="translate(-19.836 -6.127)" fill="#727171"/>
          <path id="패스_91" data-name="패스 91" d="M41.911,22.326H40.28l-2.333,5.251-2.332-5.251H33.982a5.312,5.312,0,0,0-5.313,5.312V41.549H47.224V27.638a5.312,5.312,0,0,0-5.313-5.312" transform="translate(-13.262 -10.328)" fill="#727171"/>
          <path id="패스_92" data-name="패스 92" d="M46.414,41.681H27.859a.94.94,0,0,1-.94-.94V26.829a6.26,6.26,0,0,1,6.254-6.252H34.8a.94.94,0,0,1,.859.558l1.473,3.316,1.474-3.316a.941.941,0,0,1,.859-.558H41.1a6.26,6.26,0,0,1,6.253,6.252V40.741a.94.94,0,0,1-.94.94M28.8,39.8H45.474V26.829A4.376,4.376,0,0,0,41.1,22.458h-1.02L38,27.15a.94.94,0,0,1-1.719,0l-2.085-4.692H33.173A4.377,4.377,0,0,0,28.8,26.829Z" transform="translate(-12.453 -9.519)" fill="#727171"/>
          <path id="패스_93" data-name="패스 93" d="M43.116,27.708h0a.939.939,0,0,1-.859-.559L39.924,21.9a.94.94,0,0,1,.859-1.322h4.666a.94.94,0,0,1,.859,1.323l-2.333,5.251a.941.941,0,0,1-.859.558m-.886-5.251.886,1.994L44,22.457Z" transform="translate(-18.431 -9.519)" fill="#727171"/>
          <path id="패스_94" data-name="패스 94" d="M45.123,81.2a.94.94,0,0,1-.94-.94V63.725a.94.94,0,1,1,1.881,0V80.255a.94.94,0,0,1-.94.94" transform="translate(-20.439 -29.044)" fill="#727171"/>
          <path id="패스_95" data-name="패스 95" d="M11.469,40.477,1.273,33.12,0,45.627,3.488,44.06,11.02,60.832l4.492-2.017L7.981,42.043Z" transform="translate(0 -15.321)" fill="#467886"/>
          <path id="패스_96" data-name="패스 96" d="M67.043,40.477l10.2-7.357,1.274,12.507L75.024,44.06,67.492,60.832,63,58.814l7.532-16.771Z" transform="translate(-29.144 -15.321)" fill="#467886"/>
        </g>
      </g>
    </g>
  </g>
</svg>
