<svg xmlns="http://www.w3.org/2000/svg" xmlns:xlink="http://www.w3.org/1999/xlink" width="66" height="68.396" viewBox="0 0 66 68.396">
  <defs>
    <clipPath id="clip-path">
      <rect id="사각형_66" data-name="사각형 66" width="57.019" height="60.883" fill="none"/>
    </clipPath>
  </defs>
  <g id="그룹_37" data-name="그룹 37" transform="translate(-584 -1727.218)">
    <ellipse id="타원_10" data-name="타원 10" cx="20.5" cy="20" rx="20.5" ry="20" transform="translate(584 1727.218)" fill="#d1b28a"/>
    <path id="패스_35" data-name="패스 35" d="M603.345,1770.358v7.265l23.675.3L649,1793l.363-42.5.424-6.629-24.216,16.407Z" transform="translate(-7.931 -7.429)" fill="#fff"/>
    <rect id="사각형_64" data-name="사각형 64" width="24.793" height="12.772" transform="translate(597.511 1753.963)" fill="#137989"/>
    <rect id="사각형_65" data-name="사각형 65" width="7.889" height="4.633" transform="translate(605.518 1777.152)" fill="#d1b28a"/>
    <path id="패스_36" data-name="패스 36" d="M613.261,1789.563V1809s5.449,5.267,8.96,2.543,4.3-3.875,4.238-6.72,0-16.1,0-16.1Z" transform="translate(-8.504 -18.582)" fill="#fff"/>
    <g id="그룹_36" data-name="그룹 36" transform="translate(592.981 1734.73)">
      <g id="그룹_35" data-name="그룹 35" transform="translate(0 0)" clip-path="url(#clip-path)">
        <path id="패스_32" data-name="패스 32" d="M65.373,24.736V40.544a7.9,7.9,0,0,0,0-15.808" transform="translate(-16.258 -6.151)" fill="#d1b28a"/>
        <path id="패스_33" data-name="패스 33" d="M48.418,52.975a1.691,1.691,0,0,1-1-.327L26.3,37.16H1.69A1.69,1.69,0,0,1,0,35.47V17.506a1.69,1.69,0,0,1,1.69-1.69H26.3L47.419.327a1.69,1.69,0,0,1,2.69,1.363V51.285a1.691,1.691,0,0,1-1.69,1.69M3.381,33.779H26.852a1.691,1.691,0,0,1,1,.328L46.727,47.949V5.026L27.849,18.869a1.686,1.686,0,0,1-1,.328H3.381Z" transform="translate(0 0)" fill="#137989"/>
        <path id="패스_34" data-name="패스 34" d="M18.976,72.127A7.987,7.987,0,0,1,11,64.15V46.9a1.69,1.69,0,0,1,3.381,0V64.15a4.6,4.6,0,0,0,9.194,0V46.9a1.69,1.69,0,0,1,3.381,0V64.15a7.986,7.986,0,0,1-7.977,7.977" transform="translate(-2.735 -11.244)" fill="#137989"/>
      </g>
    </g>
  </g>
</svg>
