<svg id="그룹_31" data-name="그룹 31" xmlns="http://www.w3.org/2000/svg" xmlns:xlink="http://www.w3.org/1999/xlink" width="66" height="62.765" viewBox="0 0 66 62.765">
  <defs>
    <clipPath id="clip-path">
      <rect id="사각형_62" data-name="사각형 62" width="66" height="62.765" fill="none"/>
    </clipPath>
  </defs>
  <g id="그룹_30" data-name="그룹 30" clip-path="url(#clip-path)">
    <path id="패스_17" data-name="패스 17" d="M65,30.666A30.666,30.666,0,1,0,34.335,61.333,30.666,30.666,0,0,0,65,30.666" transform="translate(-1.335 0)" fill="#d1b28a"/>
    <path id="패스_18" data-name="패스 18" d="M34.4,13.874a1.432,1.432,0,0,1-1.432-1.432v-5.4a1.432,1.432,0,1,1,2.864,0v5.4A1.432,1.432,0,0,1,34.4,13.874" transform="translate(-11.987 -2.041)" fill="#137989"/>
    <path id="패스_19" data-name="패스 19" d="M50.382,41.391v31.92H75.261V32.942Z" transform="translate(-18.32 -11.979)" fill="#fff"/>
    <path id="패스_20" data-name="패스 20" d="M74.443,73.925H49.564a1.432,1.432,0,0,1-1.432-1.432V40.573a1.433,1.433,0,0,1,.971-1.356l24.879-8.449a1.432,1.432,0,0,1,1.893,1.355v40.37a1.432,1.432,0,0,1-1.432,1.432M51,71.061H73.011V34.122L51,41.6Z" transform="translate(-17.502 -11.16)" fill="#137989"/>
    <rect id="사각형_57" data-name="사각형 57" width="17.368" height="43.656" transform="translate(13.725 10.636)" fill="#fff"/>
    <path id="패스_21" data-name="패스 21" d="M38.117,60.983H20.749a1.432,1.432,0,0,1-1.432-1.432V15.895a1.432,1.432,0,0,1,1.432-1.432H38.117a1.432,1.432,0,0,1,1.432,1.432V59.551a1.432,1.432,0,0,1-1.432,1.432M22.181,58.119h14.5V17.327h-14.5Z" transform="translate(-7.024 -5.259)" fill="#137989"/>
    <rect id="사각형_58" data-name="사각형 58" width="26.756" height="43.656" transform="translate(9.031 17.676)" fill="#fff"/>
    <path id="패스_22" data-name="패스 22" d="M40.129,72.047H13.373a1.432,1.432,0,0,1-1.432-1.432V26.959a1.432,1.432,0,0,1,1.432-1.432H40.129a1.432,1.432,0,0,1,1.432,1.432V70.615a1.432,1.432,0,0,1-1.432,1.432M14.8,69.183H38.7V28.391H14.8Z" transform="translate(-4.342 -9.282)" fill="#137989"/>
    <path id="패스_23" data-name="패스 23" d="M64.568,96.993H1.432a1.432,1.432,0,1,1,0-2.864H64.568a1.432,1.432,0,1,1,0,2.864" transform="translate(0 -34.228)" fill="#137989"/>
    <rect id="사각형_59" data-name="사각형 59" width="13.046" height="4.614" transform="translate(15.739 24.577)" fill="#fff"/>
    <path id="패스_24" data-name="패스 24" d="M36.959,43.847H23.914a1.432,1.432,0,0,1-1.432-1.432V37.8a1.432,1.432,0,0,1,1.432-1.432H36.959A1.432,1.432,0,0,1,38.391,37.8v4.614a1.432,1.432,0,0,1-1.432,1.432M25.346,40.984H35.528v-1.75H25.346Z" transform="translate(-8.175 -13.225)" fill="#137989"/>
    <rect id="사각형_60" data-name="사각형 60" width="13.046" height="4.614" transform="translate(15.739 36.19)" fill="#fff"/>
    <path id="패스_25" data-name="패스 25" d="M36.959,62.1H23.914a1.432,1.432,0,0,1-1.432-1.432V56.052a1.432,1.432,0,0,1,1.432-1.432H36.959a1.432,1.432,0,0,1,1.432,1.432v4.614A1.432,1.432,0,0,1,36.959,62.1M25.346,59.234H35.528v-1.75H25.346Z" transform="translate(-8.175 -19.861)" fill="#137989"/>
    <rect id="사각형_61" data-name="사각형 61" width="13.046" height="4.614" transform="translate(15.739 47.804)" fill="#fff"/>
    <path id="패스_26" data-name="패스 26" d="M36.959,80.347H23.914a1.432,1.432,0,0,1-1.432-1.432V74.3a1.432,1.432,0,0,1,1.432-1.432H36.959A1.432,1.432,0,0,1,38.391,74.3v4.614a1.432,1.432,0,0,1-1.432,1.432M25.346,77.484H35.528v-1.75H25.346Z" transform="translate(-8.175 -26.498)" fill="#137989"/>
    <path id="패스_27" data-name="패스 27" d="M69.437,56.984H55.914a1.432,1.432,0,0,1,0-2.864H69.437a1.432,1.432,0,0,1,0,2.864" transform="translate(-19.811 -19.68)" fill="#137989"/>
    <path id="패스_28" data-name="패스 28" d="M69.437,69.734H55.914a1.432,1.432,0,0,1,0-2.864H69.437a1.432,1.432,0,0,1,0,2.864" transform="translate(-19.811 -24.316)" fill="#137989"/>
    <path id="패스_29" data-name="패스 29" d="M69.437,82.484H55.914a1.432,1.432,0,0,1,0-2.864H69.437a1.432,1.432,0,0,1,0,2.864" transform="translate(-19.811 -28.952)" fill="#137989"/>
  </g>
</svg>
