<svg xmlns="http://www.w3.org/2000/svg" xmlns:xlink="http://www.w3.org/1999/xlink" width="66" height="68.965" viewBox="0 0 66 68.965">
  <defs>
    <clipPath id="clip-path">
      <rect id="사각형_63" data-name="사각형 63" width="56.52" height="53.888" fill="none"/>
    </clipPath>
  </defs>
  <g id="그룹_34" data-name="그룹 34" transform="translate(-484.449 -1740.288)">
    <ellipse id="타원_6" data-name="타원 6" cx="19" cy="18.5" rx="19" ry="18.5" transform="translate(484.449 1740.288)" fill="#d1b28a"/>
    <g id="그룹_33" data-name="그룹 33" transform="translate(493.929 1755.365)">
      <g id="그룹_32" data-name="그룹 32" clip-path="url(#clip-path)">
        <path id="패스_30" data-name="패스 30" d="M49.446,2.5H9.687A7.228,7.228,0,0,0,2.5,9.768v24.2a7.228,7.228,0,0,0,7.187,7.268h4.884l-3.9,10.845L26.423,41.233H49.446a7.228,7.228,0,0,0,7.187-7.268V9.768A7.228,7.228,0,0,0,49.446,2.5" transform="translate(-1.306 -1.293)" fill="#fff"/>
        <path id="패스_31" data-name="패스 31" d="M6.979,53.888,11.56,41.147H8.381A8.438,8.438,0,0,1,0,32.672V8.475A8.438,8.438,0,0,1,8.381,0H48.139A8.438,8.438,0,0,1,56.52,8.475v24.2a8.438,8.438,0,0,1-8.381,8.475H25.484Zm1.4-51.474A6.034,6.034,0,0,0,2.387,8.475v24.2a6.035,6.035,0,0,0,5.994,6.061h6.588l-3.218,8.95,13-8.95H48.139a6.034,6.034,0,0,0,5.994-6.061V8.475a6.034,6.034,0,0,0-5.994-6.061Z" fill="#137989"/>
      </g>
    </g>
    <ellipse id="타원_7" data-name="타원 7" cx="2" cy="1.5" rx="2" ry="1.5" transform="translate(508.205 1775.929)" fill="#137989"/>
    <ellipse id="타원_8" data-name="타원 8" cx="2" cy="1.5" rx="2" ry="1.5" transform="translate(520.084 1775.929)" fill="#137989"/>
    <circle id="타원_9" data-name="타원 9" cx="1.5" cy="1.5" r="1.5" transform="translate(532.959 1775.929)" fill="#137989"/>
  </g>
</svg>
