<svg id="그룹_69" data-name="그룹 69" xmlns="http://www.w3.org/2000/svg" xmlns:xlink="http://www.w3.org/1999/xlink" width="82.702" height="58.423" viewBox="0 0 82.702 58.423">
  <defs>
    <clipPath id="clip-path">
      <rect id="사각형_29" data-name="사각형 29" width="82.702" height="58.423" fill="none"/>
    </clipPath>
  </defs>
  <rect id="사각형_28" data-name="사각형 28" width="36.213" height="0.732" transform="translate(19.593 40.526)" fill="#af0017"/>
  <g id="그룹_2" data-name="그룹 2">
    <g id="그룹_1" data-name="그룹 1" clip-path="url(#clip-path)">
      <path id="패스_1" data-name="패스 1" d="M673.41,500.689a2.621,2.621,0,0,1-.556.418,3.045,3.045,0,0,1-.683.278,2.78,2.78,0,0,1-.736.1,1.922,1.922,0,0,1-.653-.1,1.043,1.043,0,0,1-.433-.278.716.716,0,0,1-.179-.418,1,1,0,0,1,.108-.523,1.742,1.742,0,0,1,.373-.512,2.667,2.667,0,0,1,.559-.414,3.091,3.091,0,0,1,.675-.28,2.573,2.573,0,0,1,.727-.1,1.693,1.693,0,0,1,.626.1,1.057,1.057,0,0,1,.426.28.8.8,0,0,1,.191.414.949.949,0,0,1-.082.512,1.659,1.659,0,0,1-.362.523m-.554-.991a.672.672,0,0,0-.536-.191,1.44,1.44,0,0,0-.708.191,1.05,1.05,0,0,0-.467.468.4.4,0,0,0,.038.475.713.713,0,0,0,.546.186,1.428,1.428,0,0,0,.711-.186,1.025,1.025,0,0,0,.459-.475.412.412,0,0,0-.043-.468m2.641-.851-.281.677h.514l-.24.587h-.518l-1.331,3.2h-.932l1.9-4.467Z" transform="translate(-608.836 -453.196)" fill="#fff"/>
      <path id="패스_2" data-name="패스 2" d="M728.1,503.012h-4.791l.236-.586h4.761Zm-2.732-4.164h3.814l-.208.585h-2.94l-.2.505H728.8l-.206.582h-2.976l-.2.51h2.992l-.207.582h-3.932Z" transform="translate(-657.12 -453.196)" fill="#fff"/>
      <path id="패스_3" data-name="패스 3" d="M792.434,500.165l-1.249,1.365-.667-.243,1.592-1.744h-.768l.2-.585h2.572l-.183.585H793.2l.414,1.744-.824.237Zm-1.317,3.25.514-1.561h.917l-.311.975h3.129l-.167.586Zm3.052-3.3h-.644l.181-.576h.64l.179-.582h.828l-.953,3.2h-.858Zm.491,2.041.944-3.2h.827l-.914,3.2Z" transform="translate(-718.175 -453.292)" fill="#fff"/>
      <path id="패스_4" data-name="패스 4" d="M152.759,175.894,132.074,218.22h2.3L154.614,176.8Z" transform="translate(-119.987 -159.797)" fill="#fff"/>
      <path id="패스_5" data-name="패스 5" d="M363.378,40.288,344.618,0l-1.036,1.865,17.663,38.256Z" transform="translate(-312.14)" fill="#fff"/>
      <path id="패스_6" data-name="패스 6" d="M487.687,425.281,467.73,437.206l1.059,1.772,22.922-13.7Z" transform="translate(-424.926 -386.362)" fill="#fff"/>
      <path id="패스_7" data-name="패스 7" d="M628.253,559.481l-3.014,2.595H602.285v2.064h23.2l4.38-4.659Z" transform="translate(-547.167 -508.281)" fill="#fff"/>
      <path id="패스_8" data-name="패스 8" d="M540.27,448.442l-2.132.867,7.531,16.517H548.2Z" transform="translate(-488.892 -407.403)" fill="#fff"/>
      <path id="패스_9" data-name="패스 9" d="M365.052,586.437H350.117l-3.376,2.064h18.311Z" transform="translate(-315.009 -532.77)" fill="#fff"/>
      <path id="패스_10" data-name="패스 10" d="M82.464,60.286H55.348l-2.437-5.267,7.294-4.4L64.527,48H49.666L32.092,10.028,31.925,10,0,67.508H13.249l8.194-16.894H43.629l2.4,5.512-6.888,4.159-5.8,3.5H49.361l1.583,3.723H58.7l-1.733-3.723H78.454ZM22.709,48,33.073,26.632l.1-.035L42.493,48Zm28.164,2.61h4.283l-3.347,2.022Zm-6.685,9.671,2.89-1.745.759,1.745Z" transform="translate(0 -9.086)" fill="#fff"/>
    </g>
  </g>
</svg>
